<mxfile host="Electron" modified="2024-06-11T08:16:42.760Z" agent="Mozilla/5.0 (Windows NT 10.0; Win64; x64) AppleWebKit/537.36 (KHTML, like Gecko) draw.io/24.5.1 Chrome/124.0.6367.207 Electron/30.0.6 Safari/537.36" etag="uvQ8Y3Ovez5jmM47icTn" version="24.5.1" type="device" pages="2">
  <diagram name="General" id="wcb2kW3wDRvsfY-ndEJ5">
    <mxGraphModel dx="1820" dy="992" grid="1" gridSize="10" guides="1" tooltips="1" connect="1" arrows="1" fold="1" page="0" pageScale="1" pageWidth="850" pageHeight="1100" math="0" shadow="0">
      <root>
        <mxCell id="0" />
        <mxCell id="1" parent="0" />
        <mxCell id="04JsYtcfAtfZCzWF0xuQ-1" value="&lt;div style=&quot;text-align: justify;&quot;&gt;&lt;span style=&quot;font-size: 26px; background-color: initial;&quot;&gt;Japan to work/live&amp;nbsp;&lt;/span&gt;&lt;span style=&quot;font-size: 26px; background-color: initial;&quot;&gt;in Japan:&lt;/span&gt;&lt;/div&gt;&lt;div style=&quot;text-align: justify; font-size: 14px;&quot;&gt;&lt;span style=&quot;background-color: initial;&quot;&gt;&lt;br&gt;&lt;/span&gt;&lt;/div&gt;&lt;div style=&quot;text-align: justify; font-size: 14px;&quot;&gt;&lt;span style=&quot;background-color: initial;&quot;&gt;Main goal: Work/live in Japan in 3-4 years&lt;/span&gt;&lt;/div&gt;&lt;div style=&quot;text-align: justify; font-size: 14px;&quot;&gt;&lt;span style=&quot;background-color: initial;&quot;&gt;&lt;br&gt;&lt;/span&gt;&lt;/div&gt;&lt;div style=&quot;text-align: justify; font-size: 14px;&quot;&gt;&lt;span style=&quot;background-color: initial;&quot;&gt;Current Situation:&lt;/span&gt;&lt;/div&gt;&lt;div style=&quot;text-align: justify; font-size: 14px;&quot;&gt;&lt;span style=&quot;background-color: initial;&quot;&gt;* Starting on Jun-2024&lt;/span&gt;&lt;/div&gt;&lt;div style=&quot;text-align: justify; font-size: 14px;&quot;&gt;* Current Age: 29.&lt;/div&gt;&lt;div style=&quot;text-align: justify; font-size: 14px;&quot;&gt;&lt;br&gt;&lt;/div&gt;&lt;div style=&quot;text-align: justify; font-size: 14px;&quot;&gt;Expected year to be in japan:&amp;nbsp;&lt;/div&gt;&lt;div style=&quot;text-align: justify; font-size: 14px;&quot;&gt;* 2027&lt;/div&gt;&lt;div style=&quot;text-align: justify; font-size: 14px;&quot;&gt;* Future age: 32&lt;/div&gt;&lt;div style=&quot;text-align: justify; font-size: 14px;&quot;&gt;&lt;br&gt;&lt;/div&gt;&lt;div style=&quot;text-align: justify; font-size: 14px;&quot;&gt;Things to do:&lt;br&gt;* Learn Japanese&lt;/div&gt;&lt;div style=&quot;text-align: justify; font-size: 14px;&quot;&gt;* Improve my professional skills.&lt;/div&gt;&lt;div style=&quot;text-align: justify; font-size: 14px;&quot;&gt;* Add more shit to my curriculum&lt;/div&gt;&lt;div style=&quot;text-align: justify; font-size: 14px;&quot;&gt;* Improve my English (TOFEL)&lt;/div&gt;" style="text;html=1;align=center;verticalAlign=middle;resizable=0;points=[];autosize=1;strokeColor=none;fillColor=none;" parent="1" vertex="1">
          <mxGeometry x="-190" y="40" width="340" height="310" as="geometry" />
        </mxCell>
        <mxCell id="04JsYtcfAtfZCzWF0xuQ-4" value="" style="edgeStyle=orthogonalEdgeStyle;rounded=0;orthogonalLoop=1;jettySize=auto;html=1;" parent="1" source="04JsYtcfAtfZCzWF0xuQ-2" target="04JsYtcfAtfZCzWF0xuQ-3" edge="1">
          <mxGeometry relative="1" as="geometry" />
        </mxCell>
        <mxCell id="04JsYtcfAtfZCzWF0xuQ-2" value="Starting road to&amp;nbsp;&lt;div style=&quot;font-size: 18px;&quot;&gt;Japan 2027&lt;/div&gt;" style="rounded=1;whiteSpace=wrap;html=1;fontSize=18;" parent="1" vertex="1">
          <mxGeometry x="380" y="50" width="220" height="80" as="geometry" />
        </mxCell>
        <mxCell id="04JsYtcfAtfZCzWF0xuQ-3" value="Things to do" style="whiteSpace=wrap;html=1;fontSize=18;rounded=1;" parent="1" vertex="1">
          <mxGeometry x="430" y="220" width="120" height="60" as="geometry" />
        </mxCell>
      </root>
    </mxGraphModel>
  </diagram>
  <diagram id="UxsShjE8D-dA9buFzy4n" name="Things to do">
    <mxGraphModel dx="3640" dy="2784" grid="1" gridSize="10" guides="1" tooltips="1" connect="1" arrows="1" fold="1" page="0" pageScale="1" pageWidth="850" pageHeight="1100" math="0" shadow="0">
      <root>
        <mxCell id="0" />
        <mxCell id="1" parent="0" />
        <mxCell id="FxkDr1joaRnBnl69U3GL-1" value="&lt;div style=&quot;forced-color-adjust: none; border-color: rgb(0, 0, 0); color: rgb(240, 240, 240); font-family: Helvetica; font-style: normal; font-variant-ligatures: normal; font-variant-caps: normal; font-weight: 400; letter-spacing: normal; orphans: 2; text-indent: 0px; text-transform: none; widows: 2; word-spacing: 0px; -webkit-text-stroke-width: 0px; white-space: nowrap; background-color: rgb(24, 20, 29); text-decoration-thickness: initial; text-decoration-style: initial; text-decoration-color: initial; text-align: justify; font-size: 14px;&quot;&gt;Things to do:&lt;br style=&quot;forced-color-adjust: none; border-color: rgb(0, 0, 0);&quot;&gt;* Learn Japanese&lt;/div&gt;&lt;div style=&quot;forced-color-adjust: none; border-color: rgb(0, 0, 0); color: rgb(240, 240, 240); font-family: Helvetica; font-style: normal; font-variant-ligatures: normal; font-variant-caps: normal; font-weight: 400; letter-spacing: normal; orphans: 2; text-indent: 0px; text-transform: none; widows: 2; word-spacing: 0px; -webkit-text-stroke-width: 0px; white-space: nowrap; background-color: rgb(24, 20, 29); text-decoration-thickness: initial; text-decoration-style: initial; text-decoration-color: initial; text-align: justify; font-size: 14px;&quot;&gt;* Improve my professional skills.&lt;/div&gt;&lt;div style=&quot;forced-color-adjust: none; border-color: rgb(0, 0, 0); color: rgb(240, 240, 240); font-family: Helvetica; font-style: normal; font-variant-ligatures: normal; font-variant-caps: normal; font-weight: 400; letter-spacing: normal; orphans: 2; text-indent: 0px; text-transform: none; widows: 2; word-spacing: 0px; -webkit-text-stroke-width: 0px; white-space: nowrap; background-color: rgb(24, 20, 29); text-decoration-thickness: initial; text-decoration-style: initial; text-decoration-color: initial; text-align: justify; font-size: 14px;&quot;&gt;* Add more shit to my curriculum&lt;/div&gt;&lt;div style=&quot;forced-color-adjust: none; border-color: rgb(0, 0, 0); color: rgb(240, 240, 240); font-family: Helvetica; font-style: normal; font-variant-ligatures: normal; font-variant-caps: normal; font-weight: 400; letter-spacing: normal; orphans: 2; text-indent: 0px; text-transform: none; widows: 2; word-spacing: 0px; -webkit-text-stroke-width: 0px; white-space: nowrap; background-color: rgb(24, 20, 29); text-decoration-thickness: initial; text-decoration-style: initial; text-decoration-color: initial; text-align: justify; font-size: 14px;&quot;&gt;* Improve my English (TOFEL)&lt;/div&gt;" style="text;html=1;align=center;verticalAlign=middle;resizable=0;points=[];autosize=1;strokeColor=none;fillColor=none;" parent="1" vertex="1">
          <mxGeometry x="-500" y="-180" width="230" height="100" as="geometry" />
        </mxCell>
        <mxCell id="FxkDr1joaRnBnl69U3GL-6" style="edgeStyle=orthogonalEdgeStyle;rounded=0;orthogonalLoop=1;jettySize=auto;html=1;" parent="1" source="FxkDr1joaRnBnl69U3GL-2" target="FxkDr1joaRnBnl69U3GL-5" edge="1">
          <mxGeometry relative="1" as="geometry" />
        </mxCell>
        <mxCell id="FxkDr1joaRnBnl69U3GL-8" style="edgeStyle=orthogonalEdgeStyle;rounded=0;orthogonalLoop=1;jettySize=auto;html=1;" parent="1" source="FxkDr1joaRnBnl69U3GL-2" target="FxkDr1joaRnBnl69U3GL-7" edge="1">
          <mxGeometry relative="1" as="geometry" />
        </mxCell>
        <mxCell id="FxkDr1joaRnBnl69U3GL-10" style="edgeStyle=orthogonalEdgeStyle;rounded=0;orthogonalLoop=1;jettySize=auto;html=1;" parent="1" source="FxkDr1joaRnBnl69U3GL-2" target="FxkDr1joaRnBnl69U3GL-9" edge="1">
          <mxGeometry relative="1" as="geometry">
            <mxPoint x="310" y="350" as="targetPoint" />
          </mxGeometry>
        </mxCell>
        <mxCell id="FxkDr1joaRnBnl69U3GL-13" style="edgeStyle=orthogonalEdgeStyle;rounded=0;orthogonalLoop=1;jettySize=auto;html=1;" parent="1" source="FxkDr1joaRnBnl69U3GL-2" target="FxkDr1joaRnBnl69U3GL-12" edge="1">
          <mxGeometry relative="1" as="geometry" />
        </mxCell>
        <mxCell id="FxkDr1joaRnBnl69U3GL-2" value="&lt;font style=&quot;font-size: 19px;&quot;&gt;Things to do&lt;/font&gt;" style="ellipse;whiteSpace=wrap;html=1;" parent="1" vertex="1">
          <mxGeometry x="110" y="90" width="200" height="100" as="geometry" />
        </mxCell>
        <mxCell id="FxkDr1joaRnBnl69U3GL-5" value="&lt;span style=&quot;font-size: 19px;&quot;&gt;Learn Japanese&lt;/span&gt;" style="ellipse;whiteSpace=wrap;html=1;fillColor=#ffe6cc;strokeColor=#d79b00;" parent="1" vertex="1">
          <mxGeometry x="-40" y="-190" width="200" height="100" as="geometry" />
        </mxCell>
        <mxCell id="FxkDr1joaRnBnl69U3GL-38" style="edgeStyle=orthogonalEdgeStyle;rounded=0;orthogonalLoop=1;jettySize=auto;html=1;" parent="1" source="FxkDr1joaRnBnl69U3GL-7" target="FxkDr1joaRnBnl69U3GL-37" edge="1">
          <mxGeometry relative="1" as="geometry" />
        </mxCell>
        <mxCell id="PaYeoI37ts_F3SZ_4_Ff-7" style="edgeStyle=none;curved=1;rounded=0;orthogonalLoop=1;jettySize=auto;html=1;fontSize=12;startSize=8;endSize=8;" edge="1" parent="1" source="FxkDr1joaRnBnl69U3GL-7" target="PaYeoI37ts_F3SZ_4_Ff-6">
          <mxGeometry relative="1" as="geometry" />
        </mxCell>
        <mxCell id="PaYeoI37ts_F3SZ_4_Ff-9" style="edgeStyle=none;curved=1;rounded=0;orthogonalLoop=1;jettySize=auto;html=1;fontSize=12;startSize=8;endSize=8;" edge="1" parent="1" source="FxkDr1joaRnBnl69U3GL-7" target="PaYeoI37ts_F3SZ_4_Ff-8">
          <mxGeometry relative="1" as="geometry" />
        </mxCell>
        <mxCell id="FxkDr1joaRnBnl69U3GL-7" value="&lt;span style=&quot;font-size: 19px;&quot;&gt;Improve my profesional&amp;nbsp;&lt;/span&gt;&lt;div&gt;&lt;span style=&quot;font-size: 19px;&quot;&gt;Skills&lt;/span&gt;&lt;/div&gt;" style="ellipse;whiteSpace=wrap;html=1;" parent="1" vertex="1">
          <mxGeometry x="830" y="-110" width="200" height="100" as="geometry" />
        </mxCell>
        <mxCell id="FxkDr1joaRnBnl69U3GL-15" style="edgeStyle=orthogonalEdgeStyle;rounded=0;orthogonalLoop=1;jettySize=auto;html=1;" parent="1" source="FxkDr1joaRnBnl69U3GL-9" target="FxkDr1joaRnBnl69U3GL-14" edge="1">
          <mxGeometry relative="1" as="geometry" />
        </mxCell>
        <mxCell id="FxkDr1joaRnBnl69U3GL-21" style="edgeStyle=orthogonalEdgeStyle;rounded=0;orthogonalLoop=1;jettySize=auto;html=1;" parent="1" source="FxkDr1joaRnBnl69U3GL-9" target="FxkDr1joaRnBnl69U3GL-20" edge="1">
          <mxGeometry relative="1" as="geometry" />
        </mxCell>
        <mxCell id="FxkDr1joaRnBnl69U3GL-31" style="edgeStyle=orthogonalEdgeStyle;rounded=0;orthogonalLoop=1;jettySize=auto;html=1;entryX=0.5;entryY=0;entryDx=0;entryDy=0;exitX=0;exitY=1;exitDx=0;exitDy=0;" parent="1" source="FxkDr1joaRnBnl69U3GL-9" target="FxkDr1joaRnBnl69U3GL-30" edge="1">
          <mxGeometry relative="1" as="geometry" />
        </mxCell>
        <mxCell id="FxkDr1joaRnBnl69U3GL-33" style="edgeStyle=orthogonalEdgeStyle;rounded=0;orthogonalLoop=1;jettySize=auto;html=1;entryX=0.5;entryY=0;entryDx=0;entryDy=0;" parent="1" source="FxkDr1joaRnBnl69U3GL-9" target="FxkDr1joaRnBnl69U3GL-32" edge="1">
          <mxGeometry relative="1" as="geometry" />
        </mxCell>
        <mxCell id="FxkDr1joaRnBnl69U3GL-9" value="&lt;span style=&quot;font-size: 19px;&quot;&gt;Made my&amp;nbsp;&lt;/span&gt;&lt;div&gt;&lt;span style=&quot;font-size: 19px;&quot;&gt;CV, more&lt;/span&gt;&lt;/div&gt;&lt;div&gt;&lt;span style=&quot;font-size: 19px;&quot;&gt;interesting&lt;/span&gt;&lt;/div&gt;" style="ellipse;whiteSpace=wrap;html=1;" parent="1" vertex="1">
          <mxGeometry x="280" y="320" width="200" height="100" as="geometry" />
        </mxCell>
        <mxCell id="FxkDr1joaRnBnl69U3GL-12" value="&lt;span style=&quot;font-size: 19px;&quot;&gt;Improve my&amp;nbsp;&lt;/span&gt;&lt;div&gt;&lt;span style=&quot;font-size: 19px;&quot;&gt;English (TOFEL)&lt;/span&gt;&lt;/div&gt;" style="ellipse;whiteSpace=wrap;html=1;fillColor=#ffe6cc;strokeColor=#d79b00;" parent="1" vertex="1">
          <mxGeometry x="-410" y="220" width="200" height="100" as="geometry" />
        </mxCell>
        <mxCell id="FxkDr1joaRnBnl69U3GL-18" style="edgeStyle=orthogonalEdgeStyle;rounded=0;orthogonalLoop=1;jettySize=auto;html=1;" parent="1" source="FxkDr1joaRnBnl69U3GL-14" target="FxkDr1joaRnBnl69U3GL-16" edge="1">
          <mxGeometry relative="1" as="geometry" />
        </mxCell>
        <mxCell id="FxkDr1joaRnBnl69U3GL-19" style="edgeStyle=orthogonalEdgeStyle;rounded=0;orthogonalLoop=1;jettySize=auto;html=1;" parent="1" source="FxkDr1joaRnBnl69U3GL-14" target="FxkDr1joaRnBnl69U3GL-17" edge="1">
          <mxGeometry relative="1" as="geometry" />
        </mxCell>
        <mxCell id="FxkDr1joaRnBnl69U3GL-36" style="edgeStyle=orthogonalEdgeStyle;rounded=0;orthogonalLoop=1;jettySize=auto;html=1;" parent="1" source="FxkDr1joaRnBnl69U3GL-14" target="FxkDr1joaRnBnl69U3GL-35" edge="1">
          <mxGeometry relative="1" as="geometry" />
        </mxCell>
        <mxCell id="PaYeoI37ts_F3SZ_4_Ff-3" style="edgeStyle=none;curved=0;rounded=1;orthogonalLoop=1;jettySize=auto;html=1;fontSize=12;startSize=8;endSize=8;" edge="1" parent="1" source="FxkDr1joaRnBnl69U3GL-14" target="PaYeoI37ts_F3SZ_4_Ff-1">
          <mxGeometry relative="1" as="geometry">
            <mxPoint x="810.0036922628043" y="520.8876611276202" as="sourcePoint" />
            <mxPoint x="1188.3437925307655" y="629.9955170761822" as="targetPoint" />
            <Array as="points">
              <mxPoint x="1220" y="550" />
            </Array>
          </mxGeometry>
        </mxCell>
        <mxCell id="FxkDr1joaRnBnl69U3GL-14" value="&lt;span style=&quot;font-size: 19px;&quot;&gt;Learn More&amp;nbsp;&lt;/span&gt;&lt;div&gt;&lt;span style=&quot;font-size: 19px;&quot;&gt;languages&lt;/span&gt;&lt;/div&gt;" style="ellipse;whiteSpace=wrap;html=1;" parent="1" vertex="1">
          <mxGeometry x="600" y="480" width="200" height="100" as="geometry" />
        </mxCell>
        <mxCell id="FxkDr1joaRnBnl69U3GL-16" value="&lt;span style=&quot;font-size: 19px;&quot;&gt;Learn&amp;nbsp;&lt;/span&gt;&lt;div&gt;&lt;span style=&quot;font-size: 19px;&quot;&gt;Portuguese&lt;/span&gt;&lt;/div&gt;" style="ellipse;whiteSpace=wrap;html=1;fillColor=#ffe6cc;strokeColor=#d79b00;" parent="1" vertex="1">
          <mxGeometry x="930" y="280" width="200" height="100" as="geometry" />
        </mxCell>
        <mxCell id="FxkDr1joaRnBnl69U3GL-17" value="&lt;span style=&quot;font-size: 19px;&quot;&gt;Learn&amp;nbsp;&lt;/span&gt;&lt;div&gt;&lt;span style=&quot;font-size: 19px;&quot;&gt;Romanian&lt;/span&gt;&lt;/div&gt;" style="ellipse;whiteSpace=wrap;html=1;fillColor=#ffe6cc;strokeColor=#d79b00;" parent="1" vertex="1">
          <mxGeometry x="890" y="630" width="200" height="100" as="geometry" />
        </mxCell>
        <mxCell id="FxkDr1joaRnBnl69U3GL-23" style="edgeStyle=orthogonalEdgeStyle;rounded=0;orthogonalLoop=1;jettySize=auto;html=1;" parent="1" source="FxkDr1joaRnBnl69U3GL-20" target="FxkDr1joaRnBnl69U3GL-22" edge="1">
          <mxGeometry relative="1" as="geometry" />
        </mxCell>
        <mxCell id="FxkDr1joaRnBnl69U3GL-26" style="edgeStyle=orthogonalEdgeStyle;rounded=0;orthogonalLoop=1;jettySize=auto;html=1;" parent="1" source="FxkDr1joaRnBnl69U3GL-20" target="FxkDr1joaRnBnl69U3GL-24" edge="1">
          <mxGeometry relative="1" as="geometry" />
        </mxCell>
        <mxCell id="FxkDr1joaRnBnl69U3GL-27" style="edgeStyle=orthogonalEdgeStyle;rounded=0;orthogonalLoop=1;jettySize=auto;html=1;" parent="1" source="FxkDr1joaRnBnl69U3GL-20" target="FxkDr1joaRnBnl69U3GL-25" edge="1">
          <mxGeometry relative="1" as="geometry" />
        </mxCell>
        <mxCell id="FxkDr1joaRnBnl69U3GL-29" style="edgeStyle=orthogonalEdgeStyle;rounded=0;orthogonalLoop=1;jettySize=auto;html=1;" parent="1" source="FxkDr1joaRnBnl69U3GL-20" target="FxkDr1joaRnBnl69U3GL-28" edge="1">
          <mxGeometry relative="1" as="geometry" />
        </mxCell>
        <mxCell id="FxkDr1joaRnBnl69U3GL-20" value="&lt;span style=&quot;font-size: 19px;&quot;&gt;Write articles&lt;/span&gt;&lt;div&gt;&lt;span style=&quot;font-size: 19px;&quot;&gt;of anything&lt;/span&gt;&lt;/div&gt;" style="ellipse;whiteSpace=wrap;html=1;" parent="1" vertex="1">
          <mxGeometry x="280" y="630" width="200" height="100" as="geometry" />
        </mxCell>
        <mxCell id="FxkDr1joaRnBnl69U3GL-22" value="&lt;span style=&quot;font-size: 19px;&quot;&gt;Books&lt;/span&gt;" style="ellipse;whiteSpace=wrap;html=1;" parent="1" vertex="1">
          <mxGeometry x="370" y="920" width="160" height="60" as="geometry" />
        </mxCell>
        <mxCell id="FxkDr1joaRnBnl69U3GL-24" value="&lt;span style=&quot;font-size: 19px;&quot;&gt;Stories&lt;/span&gt;" style="ellipse;whiteSpace=wrap;html=1;" parent="1" vertex="1">
          <mxGeometry x="560" y="910" width="160" height="60" as="geometry" />
        </mxCell>
        <mxCell id="FxkDr1joaRnBnl69U3GL-25" value="&lt;span style=&quot;font-size: 19px;&quot;&gt;Professional&lt;/span&gt;&lt;div&gt;&lt;span style=&quot;font-size: 19px;&quot;&gt;articles&lt;/span&gt;&lt;/div&gt;" style="ellipse;whiteSpace=wrap;html=1;" parent="1" vertex="1">
          <mxGeometry x="190" y="910" width="160" height="60" as="geometry" />
        </mxCell>
        <mxCell id="FxkDr1joaRnBnl69U3GL-28" value="&lt;span style=&quot;font-size: 19px;&quot;&gt;Politilcal stuff&lt;/span&gt;" style="ellipse;whiteSpace=wrap;html=1;" parent="1" vertex="1">
          <mxGeometry x="710" y="840" width="160" height="60" as="geometry" />
        </mxCell>
        <mxCell id="FxkDr1joaRnBnl69U3GL-30" value="&lt;span style=&quot;font-size: 19px;&quot;&gt;Artistic stuff&lt;/span&gt;" style="ellipse;whiteSpace=wrap;html=1;" parent="1" vertex="1">
          <mxGeometry x="50" y="650" width="160" height="80" as="geometry" />
        </mxCell>
        <mxCell id="FxkDr1joaRnBnl69U3GL-32" value="&lt;span style=&quot;font-size: 19px;&quot;&gt;Sport stuff&lt;/span&gt;" style="ellipse;whiteSpace=wrap;html=1;" parent="1" vertex="1">
          <mxGeometry x="-150" y="650" width="160" height="80" as="geometry" />
        </mxCell>
        <mxCell id="FxkDr1joaRnBnl69U3GL-35" value="&lt;span style=&quot;font-size: 19px;&quot;&gt;Learn&amp;nbsp;&lt;/span&gt;&lt;div&gt;&lt;span style=&quot;font-size: 19px;&quot;&gt;Italian&lt;/span&gt;&lt;/div&gt;" style="ellipse;whiteSpace=wrap;html=1;fillColor=#fff2cc;strokeColor=#d6b656;" parent="1" vertex="1">
          <mxGeometry x="1170" y="370" width="200" height="100" as="geometry" />
        </mxCell>
        <mxCell id="FxkDr1joaRnBnl69U3GL-37" value="&lt;span style=&quot;font-size: 19px;&quot;&gt;Keep my job&lt;/span&gt;&lt;div&gt;&lt;span style=&quot;font-size: 19px;&quot;&gt;with NXP at least&lt;/span&gt;&lt;/div&gt;&lt;div&gt;&lt;span style=&quot;font-size: 19px;&quot;&gt;3 years, or get&lt;/span&gt;&lt;/div&gt;&lt;div&gt;&lt;span style=&quot;font-size: 19px;&quot;&gt;something better&lt;/span&gt;&lt;/div&gt;" style="ellipse;whiteSpace=wrap;html=1;fillColor=#ffe6cc;strokeColor=#d79b00;" parent="1" vertex="1">
          <mxGeometry x="420" y="-250" width="200" height="100" as="geometry" />
        </mxCell>
        <mxCell id="PaYeoI37ts_F3SZ_4_Ff-1" value="&lt;font style=&quot;font-size: 18px;&quot;&gt;Learn&amp;nbsp;&lt;/font&gt;&lt;div&gt;&lt;font style=&quot;font-size: 18px;&quot;&gt;German&lt;/font&gt;&lt;/div&gt;" style="ellipse;whiteSpace=wrap;html=1;fillColor=#fff2cc;strokeColor=#d6b656;" vertex="1" parent="1">
          <mxGeometry x="1160" y="640" width="120" height="80" as="geometry" />
        </mxCell>
        <mxCell id="xBXxctCxGkhAFAhcTJyj-8" style="edgeStyle=none;curved=1;rounded=0;orthogonalLoop=1;jettySize=auto;html=1;fontSize=12;startSize=8;endSize=8;" edge="1" parent="1" source="PaYeoI37ts_F3SZ_4_Ff-4" target="xBXxctCxGkhAFAhcTJyj-7">
          <mxGeometry relative="1" as="geometry">
            <Array as="points">
              <mxPoint x="1280" y="130" />
            </Array>
          </mxGeometry>
        </mxCell>
        <mxCell id="xBXxctCxGkhAFAhcTJyj-27" value="" style="edgeStyle=none;curved=1;rounded=0;orthogonalLoop=1;jettySize=auto;html=1;fontSize=12;startSize=8;endSize=8;" edge="1" parent="1" source="PaYeoI37ts_F3SZ_4_Ff-4" target="xBXxctCxGkhAFAhcTJyj-26">
          <mxGeometry relative="1" as="geometry" />
        </mxCell>
        <mxCell id="PaYeoI37ts_F3SZ_4_Ff-4" value="&lt;span style=&quot;font-size: 19px;&quot;&gt;Coding&lt;/span&gt;" style="ellipse;whiteSpace=wrap;html=1;fillColor=#ffe6cc;strokeColor=#d79b00;" vertex="1" parent="1">
          <mxGeometry x="1210" y="-100" width="140" height="90" as="geometry" />
        </mxCell>
        <mxCell id="PaYeoI37ts_F3SZ_4_Ff-5" style="edgeStyle=none;curved=1;rounded=0;orthogonalLoop=1;jettySize=auto;html=1;entryX=0;entryY=0.5;entryDx=0;entryDy=0;fontSize=12;startSize=8;endSize=8;" edge="1" parent="1" source="FxkDr1joaRnBnl69U3GL-7" target="PaYeoI37ts_F3SZ_4_Ff-4">
          <mxGeometry relative="1" as="geometry" />
        </mxCell>
        <mxCell id="PaYeoI37ts_F3SZ_4_Ff-6" value="&lt;span style=&quot;font-size: 19px;&quot;&gt;Hardware&lt;/span&gt;" style="ellipse;whiteSpace=wrap;html=1;" vertex="1" parent="1">
          <mxGeometry x="980" y="-260" width="120" height="80" as="geometry" />
        </mxCell>
        <mxCell id="PaYeoI37ts_F3SZ_4_Ff-8" value="&lt;span style=&quot;font-size: 19px;&quot;&gt;New&lt;/span&gt;&lt;div&gt;&lt;span style=&quot;font-size: 19px;&quot;&gt;stuff&lt;/span&gt;&lt;/div&gt;" style="ellipse;whiteSpace=wrap;html=1;" vertex="1" parent="1">
          <mxGeometry x="710" y="-280" width="120" height="80" as="geometry" />
        </mxCell>
        <mxCell id="xBXxctCxGkhAFAhcTJyj-1" value="&lt;font style=&quot;font-size: 19px;&quot;&gt;2024&lt;/font&gt;" style="ellipse;whiteSpace=wrap;html=1;fillColor=#ffe6cc;strokeColor=#d79b00;" vertex="1" parent="1">
          <mxGeometry x="-520" y="-320" width="120" height="80" as="geometry" />
        </mxCell>
        <mxCell id="xBXxctCxGkhAFAhcTJyj-3" value="&lt;font style=&quot;font-size: 19px;&quot;&gt;2025&lt;/font&gt;" style="ellipse;whiteSpace=wrap;html=1;fillColor=#fff2cc;strokeColor=#d6b656;" vertex="1" parent="1">
          <mxGeometry x="-380" y="-320" width="120" height="80" as="geometry" />
        </mxCell>
        <mxCell id="xBXxctCxGkhAFAhcTJyj-4" value="&lt;font style=&quot;font-size: 19px;&quot;&gt;2026&lt;/font&gt;" style="ellipse;whiteSpace=wrap;html=1;fillColor=#f8cecc;strokeColor=#b85450;" vertex="1" parent="1">
          <mxGeometry x="-520" y="-450" width="120" height="80" as="geometry" />
        </mxCell>
        <mxCell id="xBXxctCxGkhAFAhcTJyj-5" style="edgeStyle=none;curved=1;rounded=0;orthogonalLoop=1;jettySize=auto;html=1;exitX=1;exitY=0;exitDx=0;exitDy=0;fontSize=12;startSize=8;endSize=8;" edge="1" parent="1" source="xBXxctCxGkhAFAhcTJyj-3" target="xBXxctCxGkhAFAhcTJyj-3">
          <mxGeometry relative="1" as="geometry" />
        </mxCell>
        <mxCell id="xBXxctCxGkhAFAhcTJyj-6" value="&lt;font style=&quot;font-size: 19px;&quot;&gt;2027&lt;/font&gt;" style="ellipse;whiteSpace=wrap;html=1;fillColor=#d5e8d4;strokeColor=#82b366;" vertex="1" parent="1">
          <mxGeometry x="-380" y="-450" width="120" height="80" as="geometry" />
        </mxCell>
        <mxCell id="xBXxctCxGkhAFAhcTJyj-12" style="edgeStyle=none;curved=1;rounded=0;orthogonalLoop=1;jettySize=auto;html=1;entryX=0;entryY=1;entryDx=0;entryDy=0;fontSize=12;startSize=8;endSize=8;" edge="1" parent="1" source="xBXxctCxGkhAFAhcTJyj-7" target="xBXxctCxGkhAFAhcTJyj-9">
          <mxGeometry relative="1" as="geometry" />
        </mxCell>
        <mxCell id="xBXxctCxGkhAFAhcTJyj-17" value="" style="edgeStyle=none;curved=1;rounded=0;orthogonalLoop=1;jettySize=auto;html=1;fontSize=12;startSize=8;endSize=8;" edge="1" parent="1" source="xBXxctCxGkhAFAhcTJyj-7" target="xBXxctCxGkhAFAhcTJyj-16">
          <mxGeometry relative="1" as="geometry" />
        </mxCell>
        <mxCell id="xBXxctCxGkhAFAhcTJyj-18" value="" style="edgeStyle=none;curved=1;rounded=0;orthogonalLoop=1;jettySize=auto;html=1;fontSize=12;startSize=8;endSize=8;" edge="1" parent="1" source="xBXxctCxGkhAFAhcTJyj-7" target="xBXxctCxGkhAFAhcTJyj-16">
          <mxGeometry relative="1" as="geometry" />
        </mxCell>
        <mxCell id="xBXxctCxGkhAFAhcTJyj-19" value="" style="edgeStyle=none;curved=1;rounded=0;orthogonalLoop=1;jettySize=auto;html=1;fontSize=12;startSize=8;endSize=8;" edge="1" parent="1" source="xBXxctCxGkhAFAhcTJyj-7" target="xBXxctCxGkhAFAhcTJyj-16">
          <mxGeometry relative="1" as="geometry" />
        </mxCell>
        <mxCell id="xBXxctCxGkhAFAhcTJyj-20" value="" style="edgeStyle=none;curved=1;rounded=0;orthogonalLoop=1;jettySize=auto;html=1;fontSize=12;startSize=8;endSize=8;" edge="1" parent="1" source="xBXxctCxGkhAFAhcTJyj-7" target="xBXxctCxGkhAFAhcTJyj-16">
          <mxGeometry relative="1" as="geometry" />
        </mxCell>
        <mxCell id="xBXxctCxGkhAFAhcTJyj-21" value="" style="edgeStyle=none;curved=1;rounded=0;orthogonalLoop=1;jettySize=auto;html=1;fontSize=12;startSize=8;endSize=8;" edge="1" parent="1" source="xBXxctCxGkhAFAhcTJyj-7" target="xBXxctCxGkhAFAhcTJyj-16">
          <mxGeometry relative="1" as="geometry" />
        </mxCell>
        <mxCell id="xBXxctCxGkhAFAhcTJyj-23" value="" style="edgeStyle=none;curved=1;rounded=0;orthogonalLoop=1;jettySize=auto;html=1;fontSize=12;startSize=8;endSize=8;" edge="1" parent="1" source="xBXxctCxGkhAFAhcTJyj-7" target="xBXxctCxGkhAFAhcTJyj-22">
          <mxGeometry relative="1" as="geometry" />
        </mxCell>
        <mxCell id="xBXxctCxGkhAFAhcTJyj-25" value="" style="edgeStyle=none;curved=1;rounded=0;orthogonalLoop=1;jettySize=auto;html=1;fontSize=12;startSize=8;endSize=8;" edge="1" parent="1" source="xBXxctCxGkhAFAhcTJyj-7" target="xBXxctCxGkhAFAhcTJyj-24">
          <mxGeometry relative="1" as="geometry" />
        </mxCell>
        <mxCell id="xBXxctCxGkhAFAhcTJyj-7" value="&lt;span style=&quot;font-size: 19px;&quot;&gt;New&amp;nbsp;&lt;/span&gt;&lt;div&gt;&lt;span style=&quot;font-size: 19px;&quot;&gt;languages&lt;/span&gt;&lt;/div&gt;" style="ellipse;whiteSpace=wrap;html=1;fillColor=#ffe6cc;strokeColor=#d79b00;" vertex="1" parent="1">
          <mxGeometry x="1460" y="70" width="140" height="90" as="geometry" />
        </mxCell>
        <mxCell id="xBXxctCxGkhAFAhcTJyj-9" value="&lt;span style=&quot;font-size: 19px;&quot;&gt;C++&lt;/span&gt;" style="ellipse;whiteSpace=wrap;html=1;fillColor=#ffe6cc;strokeColor=#d79b00;" vertex="1" parent="1">
          <mxGeometry x="1750" width="140" height="90" as="geometry" />
        </mxCell>
        <mxCell id="xBXxctCxGkhAFAhcTJyj-16" value="&lt;span style=&quot;font-size: 19px;&quot;&gt;Python&lt;/span&gt;" style="ellipse;whiteSpace=wrap;html=1;fillColor=#ffe6cc;strokeColor=#d79b00;" vertex="1" parent="1">
          <mxGeometry x="1750" y="120" width="140" height="90" as="geometry" />
        </mxCell>
        <mxCell id="xBXxctCxGkhAFAhcTJyj-22" value="&lt;span style=&quot;font-size: 19px;&quot;&gt;Bash&lt;/span&gt;" style="ellipse;whiteSpace=wrap;html=1;fillColor=#fff2cc;strokeColor=#d6b656;" vertex="1" parent="1">
          <mxGeometry x="1750" y="230" width="140" height="90" as="geometry" />
        </mxCell>
        <mxCell id="xBXxctCxGkhAFAhcTJyj-24" value="&lt;span style=&quot;font-size: 19px;&quot;&gt;SQL&lt;/span&gt;" style="ellipse;whiteSpace=wrap;html=1;fillColor=#fff2cc;strokeColor=#d6b656;" vertex="1" parent="1">
          <mxGeometry x="1740" y="350" width="140" height="90" as="geometry" />
        </mxCell>
        <mxCell id="xBXxctCxGkhAFAhcTJyj-26" value="&lt;span style=&quot;font-size: 19px;&quot;&gt;Study&lt;/span&gt;&lt;div&gt;&lt;span style=&quot;font-size: 19px;&quot;&gt;Algorithms&lt;/span&gt;&lt;/div&gt;" style="ellipse;whiteSpace=wrap;html=1;fillColor=#ffe6cc;strokeColor=#d79b00;" vertex="1" parent="1">
          <mxGeometry x="1470" y="-90" width="140" height="90" as="geometry" />
        </mxCell>
      </root>
    </mxGraphModel>
  </diagram>
</mxfile>
